<?xml version="1.0" standalone="no"?>
<!DOCTYPE svg PUBLIC "-//W3C//DTD SVG 20010904//EN"
 "http://www.w3.org/TR/2001/REC-SVG-20010904/DTD/svg10.dtd">
<svg version="1.0" xmlns="http://www.w3.org/2000/svg"
 width="750.000000pt" height="1000.000000pt" viewBox="0 0 750.000000 1000.000000"
 preserveAspectRatio="xMidYMid meet">
<metadata>
Created by potrace 1.16, written by Peter Selinger 2001-2019
</metadata>
<g transform="translate(0.000000,1000.000000) scale(0.100000,-0.100000)"
fill="#000000" stroke="none">
<path d="M2611 6994 c-1084 -1082 -1971 -1971 -1971 -1978 0 -6 256 -267 570
-581 l570 -570 2545 2545 c1400 1400 2545 2546 2545 2547 0 2 -515 3 -1144 3
l-1143 0 -1972 -1966z"/>
<path d="M3452 4437 c-611 -611 -1112 -1117 -1112 -1122 0 -6 503 -513 1118
-1128 l1117 -1117 1147 2 1148 3 -1116 1119 -1115 1120 1118 1118 1118 1118
-1155 0 -1155 0 -1113 -1113z"/>
</g>
</svg>
