<?xml version="1.0" encoding="UTF-8" standalone="no"?>
<svg
   xmlns:dc="http://purl.org/dc/elements/1.1/"
   xmlns:cc="http://creativecommons.org/ns#"
   xmlns:rdf="http://www.w3.org/1999/02/22-rdf-syntax-ns#"
   xmlns:svg="http://www.w3.org/2000/svg"
   xmlns="http://www.w3.org/2000/svg"
   xmlns:sodipodi="http://sodipodi.sourceforge.net/DTD/sodipodi-0.dtd"
   xmlns:inkscape="http://www.inkscape.org/namespaces/inkscape"
   width="256"
   height="131"
   preserveAspectRatio="xMidYMid meet"
   viewBox="0 0 256 131"
   style="-ms-transform: rotate(360deg); -webkit-transform: rotate(360deg); transform: rotate(360deg);"
   version="1.1"
   id="svg855"
   sodipodi:docname="materializecss.svg"
   inkscape:version="0.92.4 (5da689c313, 2019-01-14)">
  <metadata
     id="metadata861">
    <rdf:RDF>
      <cc:Work
         rdf:about="">
        <dc:format>image/svg+xml</dc:format>
        <dc:type
           rdf:resource="http://purl.org/dc/dcmitype/StillImage" />
      </cc:Work>
    </rdf:RDF>
  </metadata>
  <defs
     id="defs859" />
  <sodipodi:namedview
     pagecolor="#ffffff"
     bordercolor="#666666"
     borderopacity="1"
     objecttolerance="10"
     gridtolerance="10"
     guidetolerance="10"
     inkscape:pageopacity="0"
     inkscape:pageshadow="2"
     inkscape:window-width="1366"
     inkscape:window-height="745"
     id="namedview857"
     showgrid="false"
     showguides="false"
     inkscape:zoom="3.4609375"
     inkscape:cx="79.58186"
     inkscape:cy="65.5"
     inkscape:window-x="1358"
     inkscape:window-y="559"
     inkscape:window-maximized="1"
     inkscape:current-layer="svg855" />
  <g
     stroke-width=".094"
     id="g851">
    <path
       d="M63.182 4.2c.926-1.575 2.13-3.088 3.86-3.83c.71-.123 1.42-.061 2.13-.061h34.957c-1.019.864-2.007 1.76-2.686 2.933c-1.791 2.934-2.996 6.207-4.107 9.48c-3.15 9.883-5.343 20.042-7.474 30.202a729.834 729.834 0 0 0-2.748 13.835c-2.656 15.07-5.404 30.108-8.832 45.023c-1.636 6.887-3.304 13.773-5.836 20.412c-1.174 2.749-2.316 5.682-4.57 7.72c-.525.464-1.05 1.05-1.792.958h-30.88c-2.1-.062-4.169.123-6.269-.093c1.39-1.08 2.625-2.378 3.428-3.922c2.316-4.416 3.767-9.202 5.157-13.958c2.162-7.658 3.89-15.409 5.528-23.16c1.019-5.095 2.223-10.16 2.964-15.286c.834-5.713 2.1-11.364 3.119-17.046c1.606-8.369 3.304-16.737 5.188-25.044c1.513-6.485 3.057-12.94 5.126-19.27c1.02-3.057 2.13-6.083 3.737-8.893z"
       stroke="#EB7077"
       fill="#EB7077"
       id="path839" />
    <path
       d="M104.13.309c.895 0 1.79-.031 2.686 0c1.976 1.05 3.644 2.717 4.57 4.786c1.235 2.347 2.255 4.818 3.18 7.35c3.089 9.542 5.189 19.362 7.289 29.151c1.79 8.77 3.49 17.571 5.095 26.403c.124.463-.03 1.112.587 1.235c-2.224 11.611-4.416 23.253-7.195 34.772c-1.514 6.207-3.12 12.383-5.404 18.374c-1.236 2.995-2.502 6.268-5.127 8.4c-1.667.37-2.872-.896-3.89-2.039c-1.76-2.254-2.842-4.91-3.892-7.566c-3.49-9.51-5.62-19.423-7.781-29.305c-1.637-7.69-3.089-15.44-4.602-23.16c-.68-3.923-1.605-7.783-2.13-11.704c-.093-.062-.31-.186-.402-.247a729.834 729.834 0 0 1 2.748-13.835c2.131-10.16 4.324-20.32 7.474-30.201c1.111-3.274 2.316-6.547 4.107-9.48c.68-1.174 1.667-2.07 2.686-2.934z"
       stroke="#F6A2AD"
       fill="#F6A2AD"
       id="path841" />
    <path
       d="M142.76 5.651c1.113-2.13 2.471-4.508 4.88-5.311C159.9.278 172.16.309 184.419.309c-1.143 1.142-2.347 2.285-3.12 3.736c-2.377 4.262-3.767 8.987-5.187 13.65c-3.644 12.846-6.207 25.97-8.647 39.094c-2.254 12.94-4.663 25.878-7.411 38.756c-1.42 6.484-2.903 12.938-4.786 19.33c-1.205 3.953-2.47 7.937-4.447 11.612c-.958 1.667-2.07 3.49-3.891 4.354c-11.704.093-23.439 0-35.142.03c-.649 0-1.328 0-1.977-.092c2.625-2.13 3.891-5.404 5.127-8.4c2.285-5.99 3.89-12.166 5.404-18.373c2.779-11.519 4.971-23.16 7.195-34.772c2.686-14.977 5.497-29.954 9.079-44.746c1.667-6.392 3.273-12.877 6.145-18.837z"
       stroke="#EB7077"
       fill="#EB7077"
       id="path843" />
    <path
       d="M184.419.309c.988 0 2.007-.031 2.995 0c1.606.834 2.749 2.254 3.768 3.705c1.667 2.656 2.717 5.652 3.798 8.585c2.563 7.875 4.478 15.966 6.238 24.056c2.347 10.901 4.385 21.864 6.392 32.826c.494 2.625.988 5.28 1.297 7.937l.463.463c-1.111 1.544-1.544 3.397-2.161 5.157c-1.946 6.269-3.212 12.754-4.293 19.208c-.833 5.064-1.976 10.098-3.551 14.977c-1.173 3.613-2.594 7.195-4.94 10.221c-1.113 1.452-2.626 2.563-4.293 3.304c-2.563.278-4.077-2.192-5.312-4.014c-2.563-4.478-3.952-9.48-5.435-14.36c-4.879-18.065-8.06-36.562-11.487-54.936a.812.812 0 0 0-.433-.649c2.44-13.124 5.003-26.248 8.647-39.094c1.42-4.663 2.81-9.388 5.188-13.65c.772-1.451 1.976-2.594 3.119-3.736z"
       stroke="#F6A2AD"
       fill="#F6A2AD"
       id="path845" />
    <path
       d="M.03 70.562c.804-.062 1.607-.185 2.44-.185h33.66c1.42.185 2.903.062 4.262.68a12.143 12.143 0 0 1 5.033 3.86c.155-.093.433-.34.587-.464c-.741 5.126-1.945 10.19-2.964 15.286c-1.637 7.751-3.366 15.502-5.528 23.16c-1.39 4.756-2.841 9.542-5.157 13.958c-.803 1.544-2.038 2.841-3.428 3.922c-.525.093-.926-.278-1.359-.556c-1.451-.926-2.285-2.532-3.18-3.983c-4.231-9.635-4.694-20.289-7.319-30.356c-1.328-5.033-2.965-10.036-5.373-14.668c-1.483-2.78-3.304-5.435-5.682-7.566c-1.76-1.42-3.799-2.563-5.991-3.088z"
       stroke="#F6A2AD"
       fill="#F6A2AD"
       id="path847" />
    <path
       d="M212.088 73.774c1.945-2.193 4.848-3.582 7.782-3.459h25.322c3.52.062 7.071-.123 10.592.093c-1.05.71-2.316.988-3.428 1.575c-3.86 1.76-7.164 4.693-9.264 8.368c-3.366 5.868-4.54 12.6-5.528 19.208c-.988 6.485-.957 13.186-3.057 19.486c-1.42 4.416-3.582 8.862-7.319 11.765c-11.61.124-23.222.031-34.802.062c-.772 0-1.513.03-2.254-.124c1.667-.74 3.18-1.852 4.292-3.304c2.347-3.026 3.768-6.608 4.941-10.221c1.575-4.88 2.718-9.913 3.551-14.977c1.081-6.454 2.347-12.94 4.293-19.208c.617-1.76 1.05-3.613 2.161-5.157c.927-1.359 1.544-2.934 2.718-4.107z"
       stroke="#EB7077"
       fill="#EB7077"
       id="path849" />
  </g>
  <path
     style="fill:none;stroke:none;stroke-width:0.94661045;stroke-miterlimit:4;stroke-dasharray:none;stroke-dashoffset:0;stroke-opacity:1"
     d="m 26.740825,129.15661 c -2.93435,-3.04434 -4.676859,-8.38555 -7.221642,-22.13607 C 18.725103,102.7298 17.621448,97.499131 17.066617,95.396841 13.461687,81.737529 8.7302856,74.025331 2.127494,71.046025 0.90925548,70.496332 0.98945355,70.494121 19.973734,70.554036 l 19.069977,0.06019 1.662162,0.778947 c 0.914192,0.428421 2.356113,1.435256 3.204277,2.237411 0.84816,0.802156 1.627952,1.372623 1.732868,1.267705 0.272828,-0.272828 0.277957,-0.307805 -0.692064,4.720117 -0.485556,2.516776 -0.936281,4.901012 -1.00161,5.298303 -0.06533,0.397291 -0.901949,4.272178 -1.859152,8.610859 -0.9572,4.338681 -1.79916,8.174352 -1.871019,8.523702 -0.07186,0.34936 -0.259834,1.06017 -0.417719,1.57959 -0.157882,0.51942 -0.281684,0.9745 -0.275111,1.01129 0.0066,0.0368 -0.125703,0.58698 -0.293946,1.22265 -0.168243,0.63566 -0.374335,1.48081 -0.457986,1.8781 -0.122738,0.58295 -1.580895,5.88943 -1.845141,6.7148 -0.03763,0.11752 -0.116894,0.37756 -0.176149,0.57788 -1.239332,4.18954 -3.977102,11.244 -4.691625,12.08899 -0.212154,0.25089 -0.385731,0.54562 -0.385731,0.65497 0,0.38274 -2.708014,2.78953 -3.138669,2.78953 -0.239159,0 -1.047481,-0.6356 -1.796271,-1.41246 z"
     id="path1274"
     inkscape:connector-curvature="0" />
  <path
     style="fill:#000000;stroke:none;stroke-width:0.28893906;stroke-opacity:1"
     d="m 27.968171,130.36237 c -0.944137,-0.45725 -2.030923,-1.6852 -3.182548,-3.59593 -1.18192,-1.96098 -3.195891,-8.79116 -4.392707,-14.89741 C 17.811119,98.696487 17.194245,95.887691 16.060025,92.140181 12.524651,80.459157 7.927137,73.628168 1.9220245,71.133932 l -1.59614638,-0.662963 19.50338588,0.07163 19.503386,0.07163 1.644696,0.807662 c 0.904584,0.444214 2.313503,1.408975 3.130932,2.143912 1.194272,1.073755 1.540219,1.255655 1.761055,0.925973 0.366767,-0.54754 0.193205,0.51345 -1.374524,8.402363 -5.769939,29.034761 -10.423366,43.860691 -14.858257,47.338801 -0.691587,0.54239 -0.798599,0.55069 -1.668381,0.12944 z"
     id="path2748"
     inkscape:connector-curvature="0" />
  <path
     style="fill:#000000;stroke:none;stroke-width:0.28893906;stroke-opacity:1"
     d="m 29.653192,130.68565 c 0,-0.0948 0.533783,-0.77742 1.186185,-1.51693 2.749303,-3.11639 5.579014,-10.8665 9.036189,-24.74863 2.171848,-8.72096 5.657388,-25.492396 6.41103,-30.848078 0.483012,-3.432469 4.040476,-21.985407 6.079756,-31.707226 4.01643,-19.147448 7.615879,-31.687372 10.664033,-37.1518557 1.047162,-1.877261 3.263061,-4.14421438 4.106194,-4.20079489 0.826831,-0.0554866 0.909141,-0.0555284 18.938681,-0.009615 l 17.27083,0.043981 -1.17299,1.48394299 C 99.133973,5.8752264 95.983451,15.134899 92.387009,30.792661 90.257687,40.063051 88.247391,49.893665 86.577667,59.201129 78.32473,105.20507 73.421549,123.96915 68.26115,129.29697 l -1.511995,1.56104 H 48.201173 c -10.20139,0 -18.547981,-0.0776 -18.547981,-0.17236 z"
     id="path2750"
     inkscape:connector-curvature="0" />
  <path
     style="fill:#000000;stroke:none;stroke-width:0.28893906;stroke-opacity:1"
     d="m 108.08174,130.44988 c -5.3962,-2.35006 -11.079064,-22.05638 -19.338377,-67.059135 -0.583316,-3.17833 -1.182544,-6.008649 -1.331618,-6.289602 -0.535244,-1.008738 5.24033,-28.014563 8.259324,-38.619515 2.55639,-8.9799423 4.769631,-14.2263335 7.135241,-16.9138114 1.06013,-1.20437708 1.26289,-1.31025452 2.50918,-1.31025452 3.08135,0 5.72474,3.30053832 8.59436,10.73093192 2.99568,7.756812 7.14344,25.72339 12.11248,52.466878 0.55441,2.983868 1.11071,5.459798 1.23622,5.502064 0.23303,0.07848 -1.70261,10.316942 -4.30089,22.749336 -3.21307,15.374058 -6.77996,28.082188 -9.45506,33.686508 -1.14501,2.3988 -3.5161,5.47659 -4.20124,5.45342 -0.18392,-0.006 -0.73275,-0.18479 -1.21962,-0.39682 z"
     id="path2752"
     inkscape:connector-curvature="0" />
  <path
     style="fill:#000000;stroke:none;stroke-width:0.28893906;stroke-opacity:1"
     d="m 110.26719,130.67633 c 0,-0.0999 0.47438,-0.70677 1.05417,-1.34853 2.87272,-3.17976 6.48953,-13.83258 10.22238,-30.108613 1.37487,-5.994754 5.18678,-25.013182 6.92056,-34.528216 7.20722,-39.553324 12.11756,-57.720396 16.91452,-62.5796912 l 1.45024,-1.46908133 12.99672,-0.19612233 c 7.14819,-0.10786724 15.50633,-0.10862736 18.57365,-0.00169 l 5.57693,0.19443321 -1.14794,1.18183145 c -4.6644,4.8020889 -10.09635,24.7091872 -16.36672,59.9809292 -7.56154,42.53482 -12.77672,62.23119 -17.86979,67.4895 l -1.5177,1.56693 H 128.6707 c -10.12193,0 -18.40351,-0.0817 -18.40351,-0.18168 z"
     id="path2754"
     inkscape:connector-curvature="0" />
  <path
     style="fill:#000000;stroke:none;stroke-width:0.28893906;stroke-opacity:1"
     d="m 189.18513,130.62211 c -1.51886,-0.14791 -3.42906,-2.2733 -5.17177,-5.75443 -4.03257,-8.05519 -8.41451,-25.887168 -14.3615,-58.443075 -0.88539,-4.846953 -1.73808,-9.040273 -1.89485,-9.318492 -0.20652,-0.366494 0.30711,-3.470887 1.86441,-11.268624 5.15905,-25.832502 9.18287,-39.0802334 13.33704,-43.909878 1.36485,-1.58678281 1.4779,-1.6530954 2.83218,-1.66139953 1.78424,-0.0109405 2.91859,0.67004934 4.47363,2.68567633 4.58288,5.9402567 9.0665,22.5636442 15.7559,58.4162842 1.03778,5.562076 2.10102,11.413092 2.36275,13.002257 0.26174,1.589165 0.56766,2.98893 0.67983,3.110591 0.11217,0.121657 -0.15231,0.966804 -0.58773,1.878103 -1.60802,3.365406 -3.45829,10.711737 -5.46522,21.699097 -3.08743,16.90286 -6.42025,25.41581 -11.1797,28.55603 -1.27396,0.84054 -1.90274,1.08014 -2.64497,1.00786 z"
     id="path2756"
     inkscape:connector-curvature="0" />
  <path
     style="fill:#000000;stroke:none;stroke-width:0.28893906;stroke-opacity:1"
     d="m 190.59224,130.77099 c 0,-0.0575 0.65561,-0.52941 1.4569,-1.04863 2.70375,-1.75197 5.23067,-5.96968 7.19611,-12.01107 1.63233,-5.01748 2.43079,-8.37358 3.92019,-16.4774 2.6776,-14.568823 4.23499,-20.020704 6.98147,-24.439728 1.77264,-2.852138 3.55456,-4.641561 5.53227,-5.555575 1.33745,-0.618109 1.54353,-0.624938 20.56543,-0.68142 14.41826,-0.04281 19.03414,0.02401 18.4921,0.267708 -2.29432,1.031508 -4.84019,2.36698 -5.89255,3.091028 -2.32795,1.60167 -4.89836,4.669541 -6.45124,7.699766 -2.93218,5.72173 -4.28773,11.683703 -5.86579,25.798831 -0.67694,6.05501 -1.13181,8.46705 -2.21416,11.74092 -1.56833,4.74387 -3.58186,8.27395 -5.98055,10.48499 l -1.27834,1.17834 -18.23092,0.0284 c -10.027,0.0156 -18.23092,-0.0186 -18.23092,-0.0762 z"
     id="path2758"
     inkscape:connector-curvature="0" />
  <path
     style="fill:#000000;stroke:none;stroke-width:0.28893906;stroke-opacity:1"
     d="m 27.772858,130.03694 c -2.298575,-1.40176 -4.172238,-5.4059 -6.03798,-12.90353 -0.395455,-1.58917 -1.576356,-7.09242 -2.624225,-12.22945 C 16.763726,93.398471 14.973315,87.348079 12.383827,82.171783 9.98014,77.366896 6.1009905,72.9969 2.8584104,71.441073 l -1.7232843,-0.826852 19.2410069,0.08581 19.241007,0.08581 1.30245,0.755603 c 0.716349,0.415582 2.082586,1.349202 3.036085,2.074711 0.953499,0.725508 1.786051,1.352788 1.850114,1.393955 0.06406,0.04117 -0.6928,4.074802 -1.68192,8.963635 -4.505975,22.271275 -7.982325,34.905805 -11.478679,41.718395 -1.196444,2.33125 -3.151293,4.8783 -3.742197,4.87585 -0.143598,-5.7e-4 -0.652159,-0.23957 -1.130135,-0.53105 z"
     id="path2760"
     inkscape:connector-curvature="0" />
  <path
     style="fill:#000000;stroke:none;stroke-width:0.28893906;stroke-opacity:1"
     d="m 37.795148,130.64147 -7.894161,-0.0818 0.845695,-1.07884 c 2.906762,-3.70811 5.06609,-9.2662 8.276859,-21.30457 2.29667,-8.611071 5.405424,-23.16795 7.394776,-34.626363 C 50.108091,52.297311 54.959646,29.47694 58.096515,18.618925 60.887503,8.9581483 62.688498,4.7848969 65.166231,2.2370202 L 66.810214,0.54650113 H 84.95157 103.09293 L 102.09217,1.9189616 C 97.203172,8.6238608 92.682348,25.566328 85.689416,63.390745 80.631402,90.749303 77.893797,103.54675 74.877357,113.93379 c -2.357066,8.11649 -4.380608,12.63803 -6.879682,15.37241 l -1.418272,1.55181 -10.445046,-0.0674 c -5.744776,-0.0371 -13.99742,-0.10418 -18.339209,-0.14915 z"
     id="path2762"
     inkscape:connector-curvature="0" />
  <path
     style="fill:#000000;stroke:none;stroke-width:0.28893906;stroke-opacity:1"
     d="m 35.510985,130.57853 -5.5553,-0.15393 1.033876,-1.30022 c 2.760796,-3.47204 5.557789,-11.09655 8.744599,-23.83747 2.37065,-9.477908 5.105233,-22.537434 6.836728,-32.650115 C 49.920392,53.074243 54.922852,29.603946 58.130465,18.402135 60.762289,9.2111329 62.633987,4.8984546 65.135124,2.2623457 L 66.78186,0.52674501 84.913479,0.60885785 103.0451,0.69097065 102.00859,2.1356659 C 97.117386,8.9530756 92.657545,25.776993 85.549653,64.223938 77.465873,107.94952 73.276427,123.5304 68.07195,129.22493 l -1.492547,1.63308 -12.756559,-0.0628 C 46.806737,130.76071 38.5664,130.66316 35.510985,130.5785 Z"
     id="path2764"
     inkscape:connector-curvature="0" />
  <path
     style="fill:#000000;stroke:none;stroke-width:0.28893906;stroke-opacity:1"
     d="m 35.205349,130.64169 -5.28306,-0.0857 1.316895,-1.84546 c 0.724292,-1.01501 1.7879,-2.86488 2.363571,-4.11083 1.156952,-2.50403 4.223838,-11.55102 4.071087,-12.00927 -0.05317,-0.15951 -0.460254,0.92744 -0.904639,2.41544 -2.260347,7.56865 -5.268463,13.85118 -7.255395,15.15306 -0.618065,0.40498 -0.767786,0.40415 -1.566069,-0.009 -1.439893,-0.74459 -3.145728,-3.31074 -4.24464,-6.38536 -1.364757,-3.81842 -2.393595,-8.00389 -4.435571,-18.04455 C 18.31412,101.03228 17.070104,95.506321 16.503047,93.440406 13.369265,82.023329 8.6095362,74.395621 2.7906254,71.46556 l -1.7521803,-0.882296 19.2915719,0.115495 19.291572,0.115495 1.300226,0.734879 c 0.715124,0.404185 2.109079,1.334346 3.097675,2.067026 l 1.797447,1.332148 -0.135695,1.300226 c -0.258658,2.478395 0.12707,0.68957 1.308391,-6.06772 C 49.81136,54.040235 54.409389,32.189341 57.097319,22.146776 60.219791,10.480686 62.357672,5.1898254 65.129701,2.2681163 L 66.78186,0.52674501 84.913479,0.60885785 103.0451,0.69097065 102.0116,2.1356659 C 97.147745,8.9346728 93.013458,24.560176 85.536799,64.402032 77.075299,109.49193 73.299923,123.50469 68.07195,129.22493 l -1.492547,1.63308 -13.045497,-0.0653 c -7.175024,-0.0359 -15.422876,-0.10388 -18.328557,-0.15103 z m 4.111568,-23.78206 c 1.99355,-7.730173 6.271963,-27.630757 6.19902,-28.834082 -0.01589,-0.262235 -0.273169,0.693414 -0.571718,2.123662 -0.298549,1.430248 -1.203431,5.786004 -2.010851,9.679458 -1.162523,5.605811 -3.745751,16.616902 -5.083929,21.670432 -0.105202,0.39729 -0.110507,0.64994 -0.01179,0.56144 0.09872,-0.0885 0.764391,-2.42891 1.479266,-5.20091 z"
     id="path2766"
     inkscape:connector-curvature="0" />
  <path
     style="fill:#000000;stroke:none;stroke-width:0.28893906;stroke-opacity:1"
     d="m 33.619233,130.58232 -3.690847,-0.15772 1.17806,-1.56648 c 1.114359,-1.48177 3.135482,-5.38305 3.604306,-6.95722 0.358675,-1.20432 -0.02381,-0.55095 -1.014861,1.73364 -1.180243,2.7207 -3.201505,5.88187 -4.164221,6.51266 -0.691547,0.45312 -0.789925,0.44901 -1.678994,-0.0702 -3.104998,-1.81325 -5.009537,-6.95656 -8.027469,-21.67862 C 17.683775,97.952077 16.622043,93.523577 15.303846,89.539729 14.091238,85.874994 11.676278,80.737184 9.9882008,78.230736 8.1919306,75.563643 5.27604,72.80895 2.9577525,71.588951 l -1.99115033,-1.047843 19.32749383,0.140144 19.327493,0.140147 1.300226,0.709961 c 1.854937,1.01285 4.868461,3.339107 4.987903,3.850356 0.05569,0.238374 0.20107,-0.216705 0.323063,-1.011287 C 47.966571,63.077622 53.669997,35.41503 56.669233,23.751851 59.840778,11.4186 62.248375,5.3050228 65.129813,2.2679972 L 66.78186,0.52674501 84.913479,0.60885785 103.0451,0.69097065 102.01183,2.1356659 C 97.183839,8.8860502 93.057879,24.537531 85.445153,64.97991 76.998855,109.85063 73.215828,123.81365 68.015468,129.31227 l -1.461902,1.54574 -14.621746,-0.059 c -8.04196,-0.0324 -16.282623,-0.12996 -18.312587,-0.2167 z m 2.393704,-12.30229 c 0.475053,-1.40539 0.853942,-2.69339 0.84198,-2.86222 -0.01196,-0.16884 -0.396413,0.77561 -0.854329,2.09878 -1.100948,3.18121 -1.253161,3.6946 -1.03483,3.49033 0.100898,-0.0944 0.572128,-1.3215 1.047179,-2.72689 z m 1.705815,-5.48071 c 0.0087,-0.15891 -0.110155,-0.0939 -0.264206,0.14447 -0.15405,0.23838 -0.272943,0.62844 -0.264206,0.86682 0.01676,0.45764 0.498325,-0.46397 0.528412,-1.01129 z m 0.22211,-1.3544 c -0.09224,-0.23049 -0.160702,-0.16203 -0.174565,0.17457 -0.01254,0.30459 0.05574,0.47524 0.151757,0.37923 0.09601,-0.096 0.106274,-0.34522 0.0228,-0.5538 z m 0.577879,-2.02257 c -0.09224,-0.2305 -0.160703,-0.16203 -0.174566,0.17457 -0.01254,0.30458 0.05574,0.47524 0.151757,0.37923 0.09601,-0.096 0.106274,-0.34523 0.0228,-0.5538 z m 0.288939,-1.15576 c -0.09223,-0.23049 -0.160702,-0.16203 -0.174566,0.17457 -0.01254,0.30459 0.05574,0.47524 0.151757,0.37923 0.09601,-0.096 0.106274,-0.34522 0.0228,-0.5538 z m 1.096038,-3.97025 c 0.07948,-0.5676 -0.111039,-0.12185 -0.423382,0.99057 -0.312344,1.11241 -0.558011,2.15259 -0.545928,2.31151 0.03554,0.46745 0.81172,-2.17671 0.96931,-3.30208 z m 0.348657,-1.80853 c -0.09224,-0.23049 -0.160702,-0.16203 -0.174566,0.17457 -0.01254,0.30459 0.05574,0.47524 0.151757,0.37923 0.09601,-0.096 0.106275,-0.34522 0.0228,-0.5538 z m 0.288939,-1.15576 c -0.09224,-0.23049 -0.160702,-0.16203 -0.174565,0.17457 -0.01254,0.30459 0.05574,0.47525 0.151756,0.37923 0.09601,-0.096 0.106275,-0.34522 0.0228,-0.5538 z m 0.611837,-2.401802 c 0,-0.457584 -0.04816,-0.427508 -0.231336,0.14447 -0.127234,0.397291 -0.231336,0.982392 -0.231336,1.300222 0,0.45759 0.04816,0.42751 0.231336,-0.14447 0.127234,-0.397287 0.231336,-0.982389 0.231336,-1.300222 z m 0.25498,-1.354401 c -0.09223,-0.230496 -0.160702,-0.162032 -0.174565,0.174568 -0.01254,0.304588 0.05574,0.475244 0.151756,0.379232 0.09601,-0.09601 0.106275,-0.345224 0.0228,-0.5538 z m 0.282921,-1.462754 c -0.08015,-0.198646 -0.145738,-0.03612 -0.145738,0.361173 0,0.397292 0.06558,0.55982 0.145738,0.361174 0.08015,-0.198645 0.08015,-0.523702 0,-0.722347 z m 0.294957,-1.137698 c -0.09224,-0.230495 -0.160702,-0.162031 -0.174565,0.174568 -0.01254,0.304588 0.05574,0.475244 0.151756,0.379233 0.09601,-0.09601 0.106275,-0.345225 0.0228,-0.553801 z m 0.282921,-1.462754 c -0.08015,-0.198646 -0.145738,-0.03612 -0.145738,0.361174 0,0.397291 0.06558,0.559819 0.145738,0.361174 0.08015,-0.198646 0.08015,-0.523702 0,-0.722348 z m 0.617855,-2.383747 c 0,-0.457584 -0.04816,-0.427509 -0.231336,0.144469 -0.127234,0.397292 -0.231336,0.982393 -0.231336,1.300226 0,0.457584 0.04816,0.427509 0.231336,-0.144469 0.127235,-0.397292 0.231336,-0.982393 0.231336,-1.300226 z m 0.248962,-1.6614 c -0.08016,-0.198645 -0.145738,-0.03612 -0.145738,0.361174 0,0.397291 0.06558,0.55982 0.145738,0.361174 0.08015,-0.198646 0.08015,-0.523702 0,-0.722348 z m 1.250496,-5.245983 c 0.478313,-2.368812 0.856606,-4.514184 0.840651,-4.767494 -0.03407,-0.541067 -1.97035,8.580187 -1.957001,9.218895 0.01638,0.784267 0.23591,-0.09106 1.11635,-4.451401 z m 1.067035,-6.004581 c -0.09223,-0.230495 -0.160702,-0.162031 -0.174566,0.174568 -0.01254,0.304588 0.05574,0.475244 0.151757,0.379233 0.09601,-0.09601 0.106275,-0.345225 0.0228,-0.553801 z m 0.288939,-1.733634 c -0.09223,-0.230496 -0.160702,-0.162032 -0.174566,0.174568 -0.01254,0.304588 0.05574,0.475244 0.151757,0.379233 0.09601,-0.09601 0.106275,-0.345225 0.0228,-0.553801 z"
     id="path2768"
     inkscape:connector-curvature="0" />
  <path
     style="fill:#000000;stroke:none;stroke-width:0.28893906;stroke-opacity:1"
     d="m 33.023504,130.58419 -3.130816,-0.15959 0.992502,-1.30022 c 0.880811,-1.1539 2.296777,-3.57971 1.844749,-3.16039 -0.09629,0.0893 -0.689648,0.95855 -1.318573,1.93162 -0.628925,0.97307 -1.474427,1.98605 -1.878893,2.25106 -0.692572,0.45379 -0.790383,0.44974 -1.679797,-0.0697 -3.162285,-1.8467 -5.024135,-6.9736 -8.32057,-22.912 C 17.419299,96.949496 16.438038,92.961845 15.049061,88.946789 12.003298,80.14253 7.845684,74.187883 2.9052174,71.554047 L 0.90375622,70.487042 20.262673,70.663425 c 21.900256,0.199535 19.774015,-0.0478 23.453159,2.72818 1.085412,0.818963 2.047873,1.604539 2.138805,1.745726 0.09093,0.141184 0.395252,-1.078803 0.676271,-2.711083 C 50.348972,50.249277 56.1576,24.04354 59.557277,13.657553 61.575519,7.4918404 63.019195,4.5218176 65.079948,2.2959577 l 1.619689,-1.74945657 h 18.172035 c 9.994622,0 18.172038,0.047794 18.172038,0.10620894 0,0.0584149 -0.59535,0.99403413 -1.323,2.07915383 -1.766251,2.6339384 -2.754992,4.8634502 -4.604861,10.3834861 -2.256761,6.734213 -8.236745,31.763512 -7.859391,32.895578 0.05699,0.170977 0.332968,-0.854485 0.613273,-2.27881 2.005859,-10.192328 5.934104,-25.835806 7.97842,-31.772524 2.254609,-6.5474153 4.977519,-11.13834197 6.814509,-11.48950379 3.4638,-0.66214905 6.99021,4.04466579 10.08295,13.45807479 2.21451,6.74032 5.52655,20.68725 8.48686,35.737975 4.13024,20.998804 3.90325,19.584604 3.5247,21.959368 -0.67538,4.236962 -4.40677,22.490594 -5.8474,28.604962 -3.94757,16.75443 -6.99247,25.47956 -10.1396,29.05489 -1.04416,1.18623 -1.27637,1.31685 -2.06181,1.15976 -5.19124,-1.03825 -10.550059,-18.42757 -18.519261,-60.094827 -1.364752,-7.135654 -2.548691,-13.082851 -2.630978,-13.215992 -0.08228,-0.13314 0.127046,-1.880314 0.46518,-3.882607 0.338137,-2.002292 0.56422,-3.691103 0.502413,-3.75291 -0.06181,-0.06181 -1.060822,4.923926 -2.220028,11.079408 -5.074386,26.945349 -7.398031,38.162249 -9.979935,48.175988 -3.016267,11.69837 -5.348961,17.42281 -8.466322,20.77639 l -1.23394,1.32744 -15.235586,-0.0571 c -8.37957,-0.0314 -16.644449,-0.12893 -18.366399,-0.21671 z m 1.232236,-7.672 c 0,-0.15892 -0.18582,0.0361 -0.412932,0.43341 -0.227112,0.39729 -0.412931,0.85237 -0.412931,1.01128 0,0.15892 0.185819,-0.0361 0.412931,-0.4334 0.227112,-0.39729 0.412932,-0.85237 0.412932,-1.01129 z m 0.589505,-1.4447 c 0,-0.15891 -0.126038,-0.0939 -0.280089,0.14447 -0.154051,0.23838 -0.280089,0.56344 -0.280089,0.72235 0,0.15892 0.126038,0.0939 0.280089,-0.14447 0.154051,-0.23837 0.280089,-0.56343 0.280089,-0.72235 z m 1.586743,-4.65493 c 0.140725,-0.71446 0.107251,-0.68902 -0.232038,0.17638 -0.218068,0.55621 -0.478732,1.33634 -0.579254,1.73363 -0.137477,0.54335 -0.07998,0.49965 0.232039,-0.17637 0.22814,-0.4943 0.488807,-1.27444 0.579253,-1.73364 z m 2.95357,-10.85748 c -0.09224,-0.2305 -0.160702,-0.16203 -0.174566,0.17457 -0.01254,0.30459 0.05574,0.47524 0.151757,0.37923 0.09601,-0.096 0.106275,-0.34522 0.0228,-0.5538 z m 1.155756,-4.62303 c -0.09224,-0.23049 -0.160702,-0.16203 -0.174565,0.17457 -0.01254,0.30459 0.05574,0.47525 0.151756,0.37923 0.09601,-0.096 0.106275,-0.34522 0.0228,-0.5538 z m 0.866817,-3.756203 c -0.09223,-0.230496 -0.160702,-0.162032 -0.174565,0.174568 -0.01254,0.304588 0.05574,0.475244 0.151756,0.379232 0.09601,-0.09601 0.106275,-0.345224 0.0228,-0.5538 z m 2.022573,-9.534989 c -0.09223,-0.230496 -0.160702,-0.162031 -0.174565,0.174568 -0.01254,0.304588 0.05574,0.475244 0.151757,0.379233 0.09601,-0.09601 0.106274,-0.345225 0.0228,-0.553801 z m 0.282921,-1.462754 c -0.08015,-0.198646 -0.145738,-0.03612 -0.145738,0.361174 0,0.397291 0.06558,0.559819 0.145738,0.361173 0.08015,-0.198645 0.08015,-0.523702 0,-0.722347 z m 0.294958,-1.137698 c -0.09224,-0.230495 -0.160703,-0.162031 -0.174566,0.174569 -0.01254,0.304588 0.05574,0.475244 0.151757,0.379232 0.09601,-0.09601 0.106274,-0.345224 0.0228,-0.553801 z m 0.288939,-1.444695 c -0.09224,-0.230495 -0.160702,-0.162031 -0.174566,0.174568 -0.01254,0.304588 0.05574,0.475244 0.151757,0.379233 0.09601,-0.09601 0.106274,-0.345225 0.0228,-0.553801 z m 0.288939,-1.444695 c -0.09224,-0.230496 -0.160702,-0.162031 -0.174566,0.174568 -0.01254,0.304588 0.05574,0.475244 0.151757,0.379233 0.09601,-0.09601 0.106275,-0.345225 0.0228,-0.553801 z M 44.8754,81.106321 c -0.09224,-0.230496 -0.160702,-0.162032 -0.174566,0.174568 -0.01254,0.304588 0.05574,0.475244 0.151757,0.379232 0.09601,-0.09601 0.106275,-0.345224 0.0228,-0.5538 z M 88.788117,48.14921 c -0.08016,-0.198646 -0.145738,-0.03612 -0.145738,0.361174 0,0.397291 0.06558,0.559819 0.145738,0.361174 0.08016,-0.198646 0.08016,-0.523702 0,-0.722348 z m 0.288939,-1.444695 c -0.08015,-0.198646 -0.145738,-0.03612 -0.145738,0.361173 0,0.397292 0.06558,0.55982 0.145738,0.361174 0.08016,-0.198645 0.08016,-0.523702 0,-0.722347 z"
     id="path2770"
     inkscape:connector-curvature="0" />
  <path
     style="fill:#000000;stroke:none;stroke-width:0.28893906;stroke-opacity:1"
     d="m 33.0357,130.58419 -3.11862,-0.15959 0.935665,-1.30022 0.935666,-1.30023 -1.304508,1.37246 c -0.717479,0.75486 -1.425442,1.37198 -1.573252,1.37138 -0.655588,-0.003 -2.209677,-1.24765 -3.141172,-2.51647 -1.821801,-2.48154 -3.405988,-7.43101 -5.376527,-16.79788 C 16.786575,94.11091 15.726443,90.077812 13.442574,84.812091 10.510748,78.052425 7.1944127,73.978243 2.4647259,71.325589 L 0.90375622,70.450118 20.262673,70.642011 c 21.904044,0.217127 19.663241,-0.0499 23.548532,2.806162 1.191874,0.876141 2.196489,1.50708 2.232479,1.402088 0.03599,-0.104991 0.778269,-4.09157 1.64951,-8.859065 C 51.885029,43.053134 56.320989,23.495804 59.581216,13.579097 61.595858,7.4511086 63.02812,4.5121775 65.079948,2.2959577 l 1.619689,-1.74945657 h 18.172035 c 9.994622,0 18.172038,0.0647103 18.172038,0.14380072 0,0.0790904 -0.45568,0.77807365 -1.01262,1.55329605 -2.274769,3.1663112 -4.688141,9.3736611 -7.054283,18.1440631 -1.317258,4.882588 -3.938017,16.076495 -4.182707,17.865386 -0.08695,0.635666 0.107303,0.05056 0.431674,-1.300225 4.547277,-18.936354 6.563832,-25.857766 9.016886,-30.9485872 1.40285,-2.9113439 3.02995,-5.05041606 4.17189,-5.48457981 2.26855,-0.86250306 5.25301,1.67929301 7.55293,6.43267811 3.90371,8.0680049 7.09679,20.9733869 13.92268,56.2709489 1.38887,7.182005 1.44734,5.892013 -0.78033,17.214867 -4.48552,22.799031 -8.61152,38.481321 -11.80041,44.851431 -1.58496,3.16612 -3.35545,5.27949 -4.4229,5.27949 -1.18967,0 -3.46163,-2.57649 -4.91783,-5.57702 -3.49177,-7.19486 -7.805687,-23.74418 -12.480027,-47.8767 -0.96961,-5.005869 -2.27387,-11.715089 -2.898357,-14.909377 L 87.45488,56.39818 87.896029,53.870781 c 0.242631,-1.390068 0.400973,-2.647933 0.351864,-2.795251 -0.04911,-0.147316 -0.913671,4.123611 -1.921254,9.490951 -9.280317,49.435649 -12.903414,62.899649 -18.623534,69.208009 l -0.982486,1.08352 -15.28315,-0.0571 C 43.031737,130.76951 34.750941,130.67198 33.0357,130.5842 Z m -0.782057,-3.48238 c 0.170099,-0.31784 0.244261,-0.57788 0.164803,-0.57788 -0.07946,0 -0.283643,0.26004 -0.453742,0.57788 -0.170098,0.31783 -0.24426,0.57787 -0.164802,0.57787 0.07946,0 0.283643,-0.26004 0.453741,-0.57787 z m 2.002097,-4.18962 c 0,-0.15892 -0.18582,0.0361 -0.412932,0.43341 -0.227112,0.39729 -0.412931,0.85237 -0.412931,1.01128 0,0.15892 0.185819,-0.0361 0.412931,-0.4334 0.227112,-0.39729 0.412932,-0.85237 0.412932,-1.01129 z m 0.589505,-1.4447 c 0,-0.15891 -0.126038,-0.0939 -0.280089,0.14447 -0.154051,0.23838 -0.280089,0.56344 -0.280089,0.72235 0,0.15892 0.126038,0.0939 0.280089,-0.14447 0.154051,-0.23837 0.280089,-0.56343 0.280089,-0.72235 z M 88.505197,49.900903 c -0.09224,-0.230495 -0.160703,-0.162031 -0.174566,0.174568 -0.01254,0.304588 0.05575,0.475244 0.151757,0.379233 0.09601,-0.09602 0.106274,-0.345225 0.0228,-0.553801 z m 0.866817,-4.623025 c -0.09223,-0.230495 -0.160702,-0.162031 -0.174566,0.174568 -0.01254,0.304588 0.05575,0.475244 0.151757,0.379233 0.09601,-0.09602 0.106275,-0.345224 0.0228,-0.553801 z m 1.075321,-4.713318 c 0.112137,-0.892874 0.05283,-0.794294 -0.26073,0.433408 -0.223234,0.874041 -0.471199,2.109255 -0.551033,2.744921 -0.112137,0.892874 -0.05283,0.794294 0.26073,-0.433408 0.223235,-0.874041 0.471199,-2.109255 0.551033,-2.744921 z"
     id="path2772"
     inkscape:connector-curvature="0" />
</svg>
