<?xml version="1.0" encoding="UTF-8" standalone="no"?>
<svg
   xmlns:dc="http://purl.org/dc/elements/1.1/"
   xmlns:cc="http://creativecommons.org/ns#"
   xmlns:rdf="http://www.w3.org/1999/02/22-rdf-syntax-ns#"
   xmlns:svg="http://www.w3.org/2000/svg"
   xmlns="http://www.w3.org/2000/svg"
   xmlns:sodipodi="http://sodipodi.sourceforge.net/DTD/sodipodi-0.dtd"
   xmlns:inkscape="http://www.inkscape.org/namespaces/inkscape"
   width="256"
   height="131"
   preserveAspectRatio="xMidYMid meet"
   viewBox="0 0 256 131"
   style="-ms-transform: rotate(360deg); -webkit-transform: rotate(360deg); transform: rotate(360deg);"
   version="1.1"
   id="svg855"
   sodipodi:docname="materializecss.svg"
   inkscape:version="0.92.4 (5da689c313, 2019-01-14)">
  <metadata
     id="metadata861">
    <rdf:RDF>
      <cc:Work
         rdf:about="">
        <dc:format>image/svg+xml</dc:format>
        <dc:type
           rdf:resource="http://purl.org/dc/dcmitype/StillImage" />
      </cc:Work>
    </rdf:RDF>
  </metadata>
  <defs
     id="defs859" />
  <sodipodi:namedview
     pagecolor="#ffffff"
     bordercolor="#666666"
     borderopacity="1"
     objecttolerance="10"
     gridtolerance="10"
     guidetolerance="10"
     inkscape:pageopacity="0"
     inkscape:pageshadow="2"
     inkscape:window-width="1366"
     inkscape:window-height="745"
     id="namedview857"
     showgrid="false"
     showguides="false"
     inkscape:zoom="3.4609375"
     inkscape:cx="79.58186"
     inkscape:cy="65.5"
     inkscape:window-x="1358"
     inkscape:window-y="559"
     inkscape:window-maximized="1"
     inkscape:current-layer="svg855" />
  <g
     stroke-width=".094"
     id="g851">
    <path
       d="M63.182 4.2c.926-1.575 2.13-3.088 3.86-3.83c.71-.123 1.42-.061 2.13-.061h34.957c-1.019.864-2.007 1.76-2.686 2.933c-1.791 2.934-2.996 6.207-4.107 9.48c-3.15 9.883-5.343 20.042-7.474 30.202a729.834 729.834 0 0 0-2.748 13.835c-2.656 15.07-5.404 30.108-8.832 45.023c-1.636 6.887-3.304 13.773-5.836 20.412c-1.174 2.749-2.316 5.682-4.57 7.72c-.525.464-1.05 1.05-1.792.958h-30.88c-2.1-.062-4.169.123-6.269-.093c1.39-1.08 2.625-2.378 3.428-3.922c2.316-4.416 3.767-9.202 5.157-13.958c2.162-7.658 3.89-15.409 5.528-23.16c1.019-5.095 2.223-10.16 2.964-15.286c.834-5.713 2.1-11.364 3.119-17.046c1.606-8.369 3.304-16.737 5.188-25.044c1.513-6.485 3.057-12.94 5.126-19.27c1.02-3.057 2.13-6.083 3.737-8.893z"
       stroke="#EB7077"
       fill="#EB7077"
       id="path839" />
    <path
       d="M104.13.309c.895 0 1.79-.031 2.686 0c1.976 1.05 3.644 2.717 4.57 4.786c1.235 2.347 2.255 4.818 3.18 7.35c3.089 9.542 5.189 19.362 7.289 29.151c1.79 8.77 3.49 17.571 5.095 26.403c.124.463-.03 1.112.587 1.235c-2.224 11.611-4.416 23.253-7.195 34.772c-1.514 6.207-3.12 12.383-5.404 18.374c-1.236 2.995-2.502 6.268-5.127 8.4c-1.667.37-2.872-.896-3.89-2.039c-1.76-2.254-2.842-4.91-3.892-7.566c-3.49-9.51-5.62-19.423-7.781-29.305c-1.637-7.69-3.089-15.44-4.602-23.16c-.68-3.923-1.605-7.783-2.13-11.704c-.093-.062-.31-.186-.402-.247a729.834 729.834 0 0 1 2.748-13.835c2.131-10.16 4.324-20.32 7.474-30.201c1.111-3.274 2.316-6.547 4.107-9.48c.68-1.174 1.667-2.07 2.686-2.934z"
       stroke="#F6A2AD"
       fill="#F6A2AD"
       id="path841" />
    <path
       d="M142.76 5.651c1.113-2.13 2.471-4.508 4.88-5.311C159.9.278 172.16.309 184.419.309c-1.143 1.142-2.347 2.285-3.12 3.736c-2.377 4.262-3.767 8.987-5.187 13.65c-3.644 12.846-6.207 25.97-8.647 39.094c-2.254 12.94-4.663 25.878-7.411 38.756c-1.42 6.484-2.903 12.938-4.786 19.33c-1.205 3.953-2.47 7.937-4.447 11.612c-.958 1.667-2.07 3.49-3.891 4.354c-11.704.093-23.439 0-35.142.03c-.649 0-1.328 0-1.977-.092c2.625-2.13 3.891-5.404 5.127-8.4c2.285-5.99 3.89-12.166 5.404-18.373c2.779-11.519 4.971-23.16 7.195-34.772c2.686-14.977 5.497-29.954 9.079-44.746c1.667-6.392 3.273-12.877 6.145-18.837z"
       stroke="#EB7077"
       fill="#EB7077"
       id="path843" />
    <path
       d="M184.419.309c.988 0 2.007-.031 2.995 0c1.606.834 2.749 2.254 3.768 3.705c1.667 2.656 2.717 5.652 3.798 8.585c2.563 7.875 4.478 15.966 6.238 24.056c2.347 10.901 4.385 21.864 6.392 32.826c.494 2.625.988 5.28 1.297 7.937l.463.463c-1.111 1.544-1.544 3.397-2.161 5.157c-1.946 6.269-3.212 12.754-4.293 19.208c-.833 5.064-1.976 10.098-3.551 14.977c-1.173 3.613-2.594 7.195-4.94 10.221c-1.113 1.452-2.626 2.563-4.293 3.304c-2.563.278-4.077-2.192-5.312-4.014c-2.563-4.478-3.952-9.48-5.435-14.36c-4.879-18.065-8.06-36.562-11.487-54.936a.812.812 0 0 0-.433-.649c2.44-13.124 5.003-26.248 8.647-39.094c1.42-4.663 2.81-9.388 5.188-13.65c.772-1.451 1.976-2.594 3.119-3.736z"
       stroke="#F6A2AD"
       fill="#F6A2AD"
       id="path845" />
    <path
       d="M.03 70.562c.804-.062 1.607-.185 2.44-.185h33.66c1.42.185 2.903.062 4.262.68a12.143 12.143 0 0 1 5.033 3.86c.155-.093.433-.34.587-.464c-.741 5.126-1.945 10.19-2.964 15.286c-1.637 7.751-3.366 15.502-5.528 23.16c-1.39 4.756-2.841 9.542-5.157 13.958c-.803 1.544-2.038 2.841-3.428 3.922c-.525.093-.926-.278-1.359-.556c-1.451-.926-2.285-2.532-3.18-3.983c-4.231-9.635-4.694-20.289-7.319-30.356c-1.328-5.033-2.965-10.036-5.373-14.668c-1.483-2.78-3.304-5.435-5.682-7.566c-1.76-1.42-3.799-2.563-5.991-3.088z"
       stroke="#F6A2AD"
       fill="#F6A2AD"
       id="path847" />
    <path
       d="M212.088 73.774c1.945-2.193 4.848-3.582 7.782-3.459h25.322c3.52.062 7.071-.123 10.592.093c-1.05.71-2.316.988-3.428 1.575c-3.86 1.76-7.164 4.693-9.264 8.368c-3.366 5.868-4.54 12.6-5.528 19.208c-.988 6.485-.957 13.186-3.057 19.486c-1.42 4.416-3.582 8.862-7.319 11.765c-11.61.124-23.222.031-34.802.062c-.772 0-1.513.03-2.254-.124c1.667-.74 3.18-1.852 4.292-3.304c2.347-3.026 3.768-6.608 4.941-10.221c1.575-4.88 2.718-9.913 3.551-14.977c1.081-6.454 2.347-12.94 4.293-19.208c.617-1.76 1.05-3.613 2.161-5.157c.927-1.359 1.544-2.934 2.718-4.107z"
       stroke="#EB7077"
       fill="#EB7077"
       id="path849" />
  </g>
  <path
     style="fill:none;stroke:none;stroke-width:0.94661045;stroke-miterlimit:4;stroke-dasharray:none;stroke-dashoffset:0;stroke-opacity:1"
     d="m 26.740825,129.15661 c -2.93435,-3.04434 -4.676859,-8.38555 -7.221642,-22.13607 C 18.725103,102.7298 17.621448,97.499131 17.066617,95.396841 13.461687,81.737529 8.7302856,74.025331 2.127494,71.046025 0.90925548,70.496332 0.98945355,70.494121 19.973734,70.554036 l 19.069977,0.06019 1.662162,0.778947 c 0.914192,0.428421 2.356113,1.435256 3.204277,2.237411 0.84816,0.802156 1.627952,1.372623 1.732868,1.267705 0.272828,-0.272828 0.277957,-0.307805 -0.692064,4.720117 -0.485556,2.516776 -0.936281,4.901012 -1.00161,5.298303 -0.06533,0.397291 -0.901949,4.272178 -1.859152,8.610859 -0.9572,4.338681 -1.79916,8.174352 -1.871019,8.523702 -0.07186,0.34936 -0.259834,1.06017 -0.417719,1.57959 -0.157882,0.51942 -0.281684,0.9745 -0.275111,1.01129 0.0066,0.0368 -0.125703,0.58698 -0.293946,1.22265 -0.168243,0.63566 -0.374335,1.48081 -0.457986,1.8781 -0.122738,0.58295 -1.580895,5.88943 -1.845141,6.7148 -0.03763,0.11752 -0.116894,0.37756 -0.176149,0.57788 -1.239332,4.18954 -3.977102,11.244 -4.691625,12.08899 -0.212154,0.25089 -0.385731,0.54562 -0.385731,0.65497 0,0.38274 -2.708014,2.78953 -3.138669,2.78953 -0.239159,0 -1.047481,-0.6356 -1.796271,-1.41246 z"
     id="path1274"
     inkscape:connector-curvature="0" />
  <path
     style="fill:#000000;stroke:none;stroke-width:0.28893906;stroke-opacity:1"
     d="m 27.968171,130.36237 c -0.944137,-0.45725 -2.030923,-1.6852 -3.182548,-3.59593 -1.18192,-1.96098 -3.195891,-8.79116 -4.392707,-14.89741 C 17.811119,98.696487 17.194245,95.887691 16.060025,92.140181 12.524651,80.459157 7.927137,73.628168 1.9220245,71.133932 l -1.59614638,-0.662963 19.50338588,0.07163 19.503386,0.07163 1.644696,0.807662 c 0.904584,0.444214 2.313503,1.408975 3.130932,2.143912 1.194272,1.073755 1.540219,1.255655 1.761055,0.925973 0.366767,-0.54754 0.193205,0.51345 -1.374524,8.402363 -5.769939,29.034761 -10.423366,43.860691 -14.858257,47.338801 -0.691587,0.54239 -0.798599,0.55069 -1.668381,0.12944 z"
     id="path2748"
     inkscape:connector-curvature="0" />
  <path
     style="fill:#000000;stroke:none;stroke-width:0.28893906;stroke-opacity:1"
     d="m 29.653192,130.68565 c 0,-0.0948 0.533783,-0.77742 1.186185,-1.51693 2.749303,-3.11639 5.579014,-10.8665 9.036189,-24.74863 2.171848,-8.72096 5.657388,-25.492396 6.41103,-30.848078 0.483012,-3.432469 4.040476,-21.985407 6.079756,-31.707226 4.01643,-19.147448 7.615879,-31.687372 10.664033,-37.1518557 1.047162,-1.877261 3.263061,-4.14421438 4.106194,-4.20079489 0.826831,-0.0554866 0.909141,-0.0555284 18.938681,-0.009615 l 17.27083,0.043981 -1.17299,1.48394299 C 99.133973,5.8752264 95.983451,15.134899 92.387009,30.792661 90.257687,40.063051 88.247391,49.893665 86.577667,59.201129 78.32473,105.20507 73.421549,123.96915 68.26115,129.29697 l -1.511995,1.56104 H 48.201173 c -10.20139,0 -18.547981,-0.0776 -18.547981,-0.17236 z"
     id="path2750"
     inkscape:connector-curvature="0" />
  <path
     style="fill:#000000;stroke:none;stroke-width:0.28893906;stroke-opacity:1"
     d="m 108.08174,130.44988 c -5.3962,-2.35006 -11.079064,-22.05638 -19.338377,-67.059135 -0.583316,-3.17833 -1.182544,-6.008649 -1.331618,-6.289602 -0.535244,-1.008738 5.24033,-28.014563 8.259324,-38.619515 2.55639,-8.9799423 4.769631,-14.2263335 7.135241,-16.9138114 1.06013,-1.20437708 1.26289,-1.31025452 2.50918,-1.31025452 3.08135,0 5.72474,3.30053832 8.59436,10.73093192 2.99568,7.756812 7.14344,25.72339 12.11248,52.466878 0.55441,2.983868 1.11071,5.459798 1.23622,5.502064 0.23303,0.07848 -1.70261,10.316942 -4.30089,22.749336 -3.21307,15.374058 -6.77996,28.082188 -9.45506,33.686508 -1.14501,2.3988 -3.5161,5.47659 -4.20124,5.45342 -0.18392,-0.006 -0.73275,-0.18479 -1.21962,-0.39682 z"
     id="path2752"
     inkscape:connector-curvature="0" />
  <path
     style="fill:#000000;stroke:none;stroke-width:0.28893906;stroke-opacity:1"
     d="m 110.26719,130.67633 c 0,-0.0999 0.47438,-0.70677 1.05417,-1.34853 2.87272,-3.17976 6.48953,-13.83258 10.22238,-30.108613 1.37487,-5.994754 5.18678,-25.013182 6.92056,-34.528216 7.20722,-39.553324 12.11756,-57.720396 16.91452,-62.5796912 l 1.45024,-1.46908133 12.99672,-0.19612233 c 7.14819,-0.10786724 15.50633,-0.10862736 18.57365,-0.00169 l 5.57693,0.19443321 -1.14794,1.18183145 c -4.6644,4.8020889 -10.09635,24.7091872 -16.36672,59.9809292 -7.56154,42.53482 -12.77672,62.23119 -17.86979,67.4895 l -1.5177,1.56693 H 128.6707 c -10.12193,0 -18.40351,-0.0817 -18.40351,-0.18168 z"
     id="path2754"
     inkscape:connector-curvature="0" />
  <path
     style="fill:#000000;stroke:none;stroke-width:0.28893906;stroke-opacity:1"
     d="m 189.18513,130.62211 c -1.51886,-0.14791 -3.42906,-2.2733 -5.17177,-5.75443 -4.03257,-8.05519 -8.41451,-25.887168 -14.3615,-58.443075 -0.88539,-4.846953 -1.73808,-9.040273 -1.89485,-9.318492 -0.20652,-0.366494 0.30711,-3.470887 1.86441,-11.268624 5.15905,-25.832502 9.18287,-39.0802334 13.33704,-43.909878 1.36485,-1.58678281 1.4779,-1.6530954 2.83218,-1.66139953 1.78424,-0.0109405 2.91859,0.67004934 4.47363,2.68567633 4.58288,5.9402567 9.0665,22.5636442 15.7559,58.4162842 1.03778,5.562076 2.10102,11.413092 2.36275,13.002257 0.26174,1.589165 0.56766,2.98893 0.67983,3.110591 0.11217,0.121657 -0.15231,0.966804 -0.58773,1.878103 -1.60802,3.365406 -3.45829,10.711737 -5.46522,21.699097 -3.08743,16.90286 -6.42025,25.41581 -11.1797,28.55603 -1.27396,0.84054 -1.90274,1.08014 -2.64497,1.00786 z"
     id="path2756"
     inkscape:connector-curvature="0" />
  <path
     style="fill:#000000;stroke:none;stroke-width:0.28893906;stroke-opacity:1"
     d="m 190.59224,130.77099 c 0,-0.0575 0.65561,-0.52941 1.4569,-1.04863 2.70375,-1.75197 5.23067,-5.96968 7.19611,-12.01107 1.63233,-5.01748 2.43079,-8.37358 3.92019,-16.4774 2.6776,-14.568823 4.23499,-20.020704 6.98147,-24.439728 1.77264,-2.852138 3.55456,-4.641561 5.53227,-5.555575 1.33745,-0.618109 1.54353,-0.624938 20.56543,-0.68142 14.41826,-0.04281 19.03414,0.02401 18.4921,0.267708 -2.29432,1.031508 -4.84019,2.36698 -5.89255,3.091028 -2.32795,1.60167 -4.89836,4.669541 -6.45124,7.699766 -2.93218,5.72173 -4.28773,11.683703 -5.86579,25.798831 -0.67694,6.05501 -1.13181,8.46705 -2.21416,11.74092 -1.56833,4.74387 -3.58186,8.27395 -5.98055,10.48499 l -1.27834,1.17834 -18.23092,0.0284 c -10.027,0.0156 -18.23092,-0.0186 -18.23092,-0.0762 z"
     id="path2758"
     inkscape:connector-curvature="0" />
</svg>
