<svg height = "0" width = "0" xmlns="http://www.w3.org/2000/svg">
    <defs>
        <clipPath id="blob">
            <path fill="#FF0066" d="M45.1,-74.6C59.3,-70,72.1,-59.5,80.9,-46.1C89.6,-32.7,94.3,-16.3,93.1,-0.7C91.9,15,84.9,30,74.8,41C64.6,52,51.4,59,38.4,64.9C25.4,70.8,12.7,75.7,0.7,74.5C-11.3,73.3,-22.6,66,-31.7,57.8C-40.7,49.6,-47.6,40.5,-51.7,30.7C-55.9,20.9,-57.3,10.5,-62.2,-2.8C-67.1,-16.2,-75.5,-32.3,-73,-44.8C-70.4,-57.3,-56.8,-66.1,-42.8,-70.7C-28.8,-75.4,-14.4,-75.9,0.5,-76.8C15.5,-77.7,31,-79.1,45.1,-74.6Z" transform="translate(100 100)" />
        </clipPath>
    </defs>
</svg>
