<svg width="106" height="26" viewBox="0 0 106 26" xmlns="http://www.w3.org/2000/svg"><title>FUSIO</title><path d="M.292 25V.872h16.16v6.912H9.124v2.496h6.432v6.272H9.124V25H.292zM32.996.872h8.768v14.272c0 7.04-4.416 10.24-11.168 10.24-6.752 0-11.168-3.2-11.168-10.24V.872h8.768v13.44c0 1.888.064 3.552 2.4 3.552s2.4-1.664 2.4-3.552V.872zm11.392 22.304l2.688-6.816.448.352c1.568 1.216 3.456 2.208 5.472 2.208.864 0 2.24-.352 2.24-1.44s-1.152-1.184-1.952-1.344l-1.76-.32c-3.424-.608-6.304-2.624-6.304-6.4 0-5.728 5.216-8.928 10.464-8.928 2.752 0 5.28.672 7.648 2.112l-2.368 6.176c-1.504-1.024-3.2-1.824-5.088-1.824-.768 0-1.888.288-1.888 1.28 0 .896 1.088 1.024 1.76 1.184l1.984.448c3.712.832 6.4 2.816 6.4 6.912 0 5.76-5.248 8.608-10.464 8.608-3.04 0-6.56-.832-9.28-2.208zM66.916 25V.872h8.768V25h-8.768zM92.228.488c7.328 0 13.344 4.928 13.344 12.512 0 7.744-5.984 12.384-13.344 12.384-7.36 0-13.344-4.64-13.344-12.384C78.884 5.416 84.9.488 92.228.488zm0 7.936c-2.784 0-4.512 2.144-4.512 4.704 0 2.752 1.856 4.64 4.512 4.64 2.656 0 4.512-1.888 4.512-4.64 0-2.56-1.728-4.704-4.512-4.704z" fill="#F5A623" fill-rule="evenodd"/></svg>